<?xml version="1.0" encoding="utf-8"?>
<!-- Generator: Adobe Illustrator 19.2.1, SVG Export Plug-In . SVG Version: 6.00 Build 0)  -->
<svg version="1.1" id="layer" xmlns="http://www.w3.org/2000/svg" xmlns:xlink="http://www.w3.org/1999/xlink" x="0px" y="0px"
	 viewBox="0 0 652 652" style="enable-background:new 0 0 652 652;" xml:space="preserve">
<style type="text/css">
	.st0{filter:url(#Adobe_OpacityMaskFilter);}
	.st1{fill:#FFFFFF;}
	.st2{mask:url(#mask-2_1_);}
	.st3{fill:#1BB76E;}
</style>
<g id="Page-1">
	<g id="Ad-UX-Copy-3" transform="translate(-163.000000, -11.000000)">
		<g id="Header">
			<g id="Imgur-Logo" transform="translate(163.000000, 10.615385)">
				<g id="Group-3">
					<g id="Clip-2">
					</g>
					<defs>
						<filter id="Adobe_OpacityMaskFilter" filterUnits="userSpaceOnUse" x="20.4" y="218.1" width="600" height="207.5">
							<feColorMatrix  type="matrix" values="1 0 0 0 0  0 1 0 0 0  0 0 1 0 0  0 0 0 1 0"/>
						</filter>
					</defs>
					<mask maskUnits="userSpaceOnUse" x="20.4" y="218.1" width="600" height="207.5" id="mask-2_1_">
						<g class="st0">
							<polyline id="path-1_1_" class="st1" points="19.3,211.3 620.8,211.3 620.8,425.7 19.3,425.7 							"/>
						</g>
					</mask>
					<path id="Fill-1" class="st2" d="M589.3,303.5c-10.2,4.3-11.3,8.2-11.3,19.3v33.7c0,15.8-5.8,23.6-18.3,23.6
						c-12.5,0-18.3-7.8-18.3-23.6v-65.2c0-15.8,5.8-23.4,18.3-23.4c7.2,0,13,3.3,17.4,10.3c7.6-7.2,16.2-10.9,24.8-10.9
						c10.2,0,18.5,7.4,18.5,16C620.4,296.4,604.2,297.4,589.3,303.5 M467.6,382.1c-35.4,0-55.1-16.4-55.1-47.5v-43.2
						c0-15.8,5.8-23.4,18.3-23.4c12.3,0,18.1,7.6,18.1,23.4V328c0,15.2,3.9,23.6,18.8,23.6c14.8,0,18.8-8.4,18.8-23.6v-36.6
						c0-15.8,5.8-23.4,18.3-23.4c12.5,0,18.1,7.6,18.1,23.4v43.2C522.7,365.6,503,382.1,467.6,382.1 M335.2,297.6
						c-13.4,0-23.8,10.3-23.8,26.5c0,16.7,10.2,27.1,23.8,27.1c13.7,0,24.1-10.7,24.1-27.1C359.2,307.9,348.6,297.6,335.2,297.6
						 M385.4,401.4c-10.6,15.8-29.6,24.3-55.6,24.3c-33.3,0-53.5-10.9-53.5-23.6c0-8.2,6.7-14.2,15.7-14.2c9,0,19.9,8.6,39.1,8.6
						c17.8,0,28.5-9.7,28.5-27.3c0-1.2-0.2-2.5-0.2-3.9c-7.9,10.1-18.8,15.2-33.1,15.2c-28.7,0-52.8-23.4-52.8-56.3
						s25.7-57.4,56.7-57.4c12.5,0,21.8,3.7,29.2,11.5c4.2-6.8,10.7-10.3,16.2-10.3c12.5,0,18.3,7.6,18.3,23.4v65.2
						C394,376.1,392.6,390.9,385.4,401.4 M240.7,380.2c-12.5,0-18.1-7.8-18.1-23.6V320c0-16.4-4.9-24.7-16.7-24.7
						c-13.2,0-18.3,8.2-18.3,24.3v37c0,15.8-5.8,23.6-18.3,23.6c-12.5,0-18.3-7.8-18.3-23.6V320c0-16.4-4.6-24.7-16.4-24.7
						c-13.2,0-18.3,8.2-18.3,24.3v37c0,15.8-5.8,23.6-18.3,23.6c-12.5,0-18.3-7.8-18.3-23.6v-65.2c0-15.8,5.8-23.4,18.3-23.4
						c7.2,0,13,3.3,17.4,10.3c7.6-7.4,16.9-10.7,29.2-10.7c15.7,0,27.8,5.1,36.3,15.2c11.1-10.9,21.8-15.2,36.8-15.2
						c25.2,0,41.2,14.6,41.2,42.6v46.5C259,372.4,253.2,380.2,240.7,380.2 M41.4,268c12.3,0,18.1,7.6,18.1,23.4v65.2
						c0,15.8-5.6,23.6-18.1,23.6c-12.5,0-18.3-7.8-18.3-23.6v-65.2C23.1,275.6,28.9,268,41.4,268 M41.4,255.6
						c-11.8,0-21.1-8.2-21.1-18.7c0-10.3,9.5-18.7,21.1-18.7c11.6,0,20.8,8.4,20.8,18.7C62.3,247.3,53,255.6,41.4,255.6"/>
				</g>
				<path id="Fill-4" class="st3" d="M41.4,255.6c-11.8,0-21.1-8.2-21.1-18.7c0-10.3,9.5-18.7,21.1-18.7s20.8,8.4,20.8,18.7
					C62.3,247.3,53,255.6,41.4,255.6"/>
			</g>
		</g>
	</g>
</g>
</svg>
